<?xml version="1.0" standalone="no"?>
<!DOCTYPE svg PUBLIC "-//W3C//DTD SVG 20010904//EN"
 "http://www.w3.org/TR/2001/REC-SVG-20010904/DTD/svg10.dtd">
<svg version="1.0" xmlns="http://www.w3.org/2000/svg"
 width="812.000000pt" height="732.000000pt" viewBox="0 0 812.000000 732.000000"
 preserveAspectRatio="xMidYMid meet">

<g transform="translate(0.000000,732.000000) scale(0.100000,-0.100000)"
fill="#000000" stroke="none">
<path d="M2474 6557 c-2 -7 -3 -813 -2 -1792 l3 -1780 113 -3 112 -3 0 -74 0
-75 35 0 35 0 0 75 0 75 1445 0 1445 0 0 -75 0 -75 35 0 35 0 0 75 0 75 120 0
120 0 0 1784 c0 1431 -3 1786 -13 1794 -19 16 -3476 15 -3483 -1z m1536 -1782
l1 -1715 -733 0 -733 0 -3 1715 -3 1715 734 0 735 0 2 -1715z m303 540 c-1
-643 -2 -1414 -2 -1712 l-1 -543 -115 0 -115 0 0 1715 0 1716 117 -3 118 -3
-2 -1170z m1577 -540 l0 -1715 -743 0 -744 0 -6 257 c-4 141 -7 913 -7 1715
l0 1458 750 0 750 0 0 -1715z"/>
<path d="M3756 4854 c-3 -26 -6 -89 -6 -140 l0 -94 40 0 41 0 -3 138 -3 137
-31 3 c-30 3 -31 1 -38 -44z"/>
<path d="M4572 4758 l3 -143 35 0 35 0 3 110 c2 61 0 125 -3 143 -5 29 -9 32
-41 32 l-35 0 3 -142z"/>
<path d="M3083 2319 c-248 -41 -413 -235 -413 -484 0 -230 141 -411 367 -470
68 -18 161 -19 235 -4 72 15 183 70 236 116 l44 38 -49 53 -49 53 -24 -26
c-14 -14 -58 -43 -99 -63 -70 -34 -81 -37 -165 -37 -79 0 -98 4 -148 28 -131
64 -215 229 -189 371 44 239 279 357 497 251 29 -14 67 -40 85 -56 l33 -30 47
53 c27 29 48 56 49 60 0 15 -110 89 -168 113 -57 23 -170 46 -217 44 -11 -1
-43 -5 -72 -10z"/>
<path d="M7390 2320 c-342 -52 -519 -401 -365 -717 91 -185 334 -290 551 -238
235 55 384 242 384 480 0 92 -19 167 -61 241 -31 54 -112 136 -169 171 -86 52
-232 79 -340 63z m135 -141 c108 -20 190 -81 239 -177 90 -178 22 -394 -153
-479 -49 -24 -67 -28 -146 -28 -70 1 -100 6 -137 22 -66 31 -129 92 -164 160
-27 53 -29 67 -29 163 0 89 4 112 23 151 50 101 135 167 242 188 62 12 60 12
125 0z"/>
<path d="M240 1845 c0 -256 0 -468 0 -472 0 -5 33 -8 72 -8 l73 0 -1 168 -1
167 89 2 c48 1 99 2 112 2 20 1 45 -28 145 -169 l121 -170 90 0 c50 0 90 2 90
4 0 1 -57 82 -126 178 -69 96 -124 176 -122 177 1 1 22 10 46 21 119 52 183
145 183 269 0 142 -82 241 -236 282 -35 10 -122 14 -292 14 l-243 0 0 -465z
m553 292 c53 -40 70 -79 65 -144 -6 -65 -28 -99 -89 -133 -41 -23 -54 -25
-211 -28 l-168 -4 0 174 0 173 183 -5 c182 -5 184 -5 220 -33z"/>
<path d="M1520 1840 l0 -470 355 0 c195 0 358 0 363 0 4 0 8 27 10 60 l3 60
-291 0 -290 0 0 145 0 145 250 0 250 0 0 66 0 65 -250 -3 -250 -3 0 137 0 137
283 -2 282 -2 3 68 3 67 -361 0 -360 0 0 -470z"/>
<path d="M3885 2242 l0 -67 153 -3 152 -3 3 -277 c1 -152 2 -333 2 -401 l0
-124 72 -1 73 -1 0 408 0 407 163 -2 162 -3 3 68 3 67 -393 0 -393 0 0 -68z"/>
<path d="M5112 1839 l3 -472 73 -1 72 -1 0 472 0 473 -75 0 -75 0 2 -471z"/>
<path d="M5690 2306 c0 -2 14 -36 31 -77 17 -41 88 -213 159 -384 70 -170 145
-350 165 -398 l37 -88 71 3 71 3 94 220 c51 121 140 333 197 470 l103 250 -75
3 c-42 2 -79 -1 -83 -5 -9 -10 -277 -683 -286 -717 -3 -14 -9 -26 -14 -26 -4
0 -74 169 -155 375 l-148 375 -84 0 c-46 0 -83 -2 -83 -4z"/>
<path d="M2868 883 l-38 -4 0 -178 c0 -175 0 -179 22 -184 33 -9 38 -1 38 69
l0 64 43 0 c41 0 44 -3 93 -67 44 -59 55 -68 82 -68 18 0 32 2 32 5 0 3 -23
34 -51 69 l-50 64 38 21 c53 30 75 90 50 140 -9 19 -31 43 -49 52 -34 17 -138
26 -210 17z m194 -73 c23 -28 23 -52 -1 -81 -17 -21 -30 -24 -100 -27 l-81 -4
0 64 c0 36 3 68 8 72 4 5 40 6 81 3 62 -3 78 -8 93 -27z"/>
<path d="M3730 755 c0 -74 -3 -135 -7 -135 -5 0 -18 15 -31 33 -12 17 -57 76
-100 130 -56 71 -83 97 -99 97 l-23 0 0 -180 0 -180 25 0 24 0 3 131 3 132
100 -129 c80 -103 106 -130 128 -132 l27 -3 0 185 0 186 -25 0 -25 0 0 -135z"/>
<path d="M4474 875 c-13 -34 3 -45 66 -45 l60 0 0 -153 c0 -85 2 -156 5 -159
3 -3 17 -3 30 0 l25 4 0 154 0 153 63 3 c59 3 62 4 62 28 l0 25 -153 3 c-129
2 -153 0 -158 -13z"/>
<path d="M5360 775 c0 -141 -12 -179 -67 -201 -30 -13 -44 -14 -75 -5 -57 18
-68 47 -68 191 l0 120 -31 0 -31 0 4 -137 c3 -124 5 -141 25 -169 46 -64 135
-81 213 -41 69 35 80 66 80 224 l0 133 -25 0 -25 0 0 -115z"/>
<path d="M1580 700 l0 -180 31 0 31 0 -3 71 -4 72 98 -2 97 -2 0 31 0 31 -97
-2 -98 -2 -3 56 -3 56 108 3 c103 3 108 4 111 26 3 22 3 22 -132 22 l-136 0 0
-180z"/>
<path d="M2160 757 c0 -108 3 -128 23 -167 40 -78 130 -102 217 -57 68 35 80
67 80 219 l0 128 -30 0 -30 0 4 -107 c5 -134 -5 -169 -57 -196 -47 -24 -98
-17 -127 20 -18 23 -20 40 -20 154 l0 129 -30 0 -30 0 0 -123z"/>
<path d="M4120 700 l0 -180 30 0 30 0 0 180 0 180 -30 0 -30 0 0 -180z"/>
<path d="M5750 700 l0 -180 30 0 30 0 0 65 0 65 44 0 c43 0 47 -2 92 -62 26
-35 49 -64 50 -66 4 -7 64 -11 64 -4 0 4 -20 33 -45 64 -47 60 -54 78 -32 78
20 0 65 51 72 82 9 37 -11 93 -42 118 -22 17 -41 20 -144 20 l-119 0 0 -180z
m205 126 c37 -16 52 -48 40 -86 -9 -28 -44 -40 -119 -40 -58 0 -64 2 -70 23
-8 30 -8 102 1 110 12 12 113 7 148 -7z"/>
<path d="M6380 700 l0 -180 144 0 143 0 -5 26 -5 26 -106 -3 -106 -4 -3 58 -3
57 101 0 c100 0 100 0 100 25 0 24 -1 24 -102 27 l-103 3 0 50 0 50 113 -4
112 -3 0 26 0 26 -140 0 -140 0 0 -180z"/>
</g>
</svg>
